<?xml version="1.0" encoding="UTF-8"?>
<!DOCTYPE svg PUBLIC "-//W3C//DTD SVG 1.1//EN" "http://www.w3.org/Graphics/SVG/1.1/DTD/svg11.dtd">
<!-- Creator: CorelDRAW -->
<svg xmlns="http://www.w3.org/2000/svg" xml:space="preserve" width="52.5141mm" height="25.2256mm" version="1.1" style="shape-rendering:geometricPrecision; text-rendering:geometricPrecision; image-rendering:optimizeQuality; fill-rule:evenodd; clip-rule:evenodd"
viewBox="0 0 4557.58 2189.28"
 xmlns:xlink="http://www.w3.org/1999/xlink"
 xmlns:xodm="http://www.corel.com/coreldraw/odm/2003">
 <defs>
  <style type="text/css">
   <![CDATA[
    .str0 {stroke:#F58634;stroke-width:6.61;stroke-miterlimit:22.9256}
    .fil0 {fill:#006A8A}
    .fil5 {fill:url(#id0)}
    .fil4 {fill:url(#id1)}
    .fil2 {fill:url(#id2)}
    .fil1 {fill:url(#id3)}
    .fil3 {fill:url(#id4)}
   ]]>
  </style>
  <linearGradient id="id0" gradientUnits="userSpaceOnUse" x1="1262.81" y1="612.21" x2="727.92" y2="-25.26">
   <stop offset="0" style="stop-opacity:1; stop-color:#B68F3D"/>
   <stop offset="1" style="stop-opacity:1; stop-color:#F3E09B"/>
  </linearGradient>
  <linearGradient id="id1" gradientUnits="userSpaceOnUse" xlink:href="#id0" x1="758.82" y1="956.49" x2="-85.24" y2="-49.42">
  </linearGradient>
  <linearGradient id="id2" gradientUnits="userSpaceOnUse" xlink:href="#id0" x1="1569.98" y1="522.84" x2="1421.16" y2="345.48">
  </linearGradient>
  <linearGradient id="id3" gradientUnits="userSpaceOnUse" xlink:href="#id0" x1="1491.85" y1="476.57" x2="1288.25" y2="233.92">
  </linearGradient>
  <linearGradient id="id4" gradientUnits="userSpaceOnUse" xlink:href="#id0" x1="1717.13" y1="502.94" x2="1547.53" y2="300.83">
  </linearGradient>
 </defs>
 <g id="__x0023_Layer_x0020_1">
  <metadata id="CorelCorpID_0Corel-Layer"/>
  <g id="_2438148073424">
   <g>
    <g>
     <path class="fil0" d="M831.24 2162.88c50.41,0 81.03,-17.24 81.03,-67.91l0 -217.35 27.47 0 0 217.35c0,68.3 -38.74,93.86 -108.5,93.86 -66.66,0 -105.86,-25.56 -105.86,-93.86l0 -217.35 27.93 0 0 217.35c0,50.22 30.18,67.91 77.94,67.91z"/>
     <path class="fil0" d="M1018.52 2184.87l0 -220.42 27.02 0 0 16.32c0,0 37.82,-20.29 72.95,-20.29 61.68,0 75.2,27.8 75.2,109.78l0 114.6 -26.57 0 0 -114.6c0,-64.35 -7.19,-85.95 -52.23,-85.95 -35.13,0 -69.34,18.51 -69.34,18.51l0 182.05 -27.02 0z"/>
     <path class="fil0" d="M1271.55 1876.33l27.03 0 0 33.04 -27.03 0 0 -33.04zm0 88.12l0 0 27.03 0 0 220.42 -27.03 0 0 -220.42z"/>
     <polygon class="fil0" points="1377.37,1964.45 1435.93,2161.94 1453.48,2161.94 1512.45,1964.45 1540.38,1964.45 1473.74,2184.87 1414.76,2184.87 1349.03,1964.45 "/>
     <path class="fil0" d="M1749.78 2161.1l0.89 22.03c0,0 -50.89,6.15 -86.02,6.15 -67.1,-0.44 -87.37,-40.1 -87.37,-113.73 0,-85.09 37.84,-115.06 92.78,-115.06 58.07,0 88.71,29.98 88.71,104.07l-0.9 21.12 -153.1 0c0,52.06 15.33,79.38 62.61,79.38 32.87,0 82.41,-3.97 82.41,-3.97zm-18.01 -97.4l0 0c0,-58.23 -19.4,-79.8 -61.71,-79.8 -40.96,0 -65.3,22.46 -65.3,79.8l127.01 0z"/>
     <path class="fil0" d="M1822.7 1964.45l27.04 0 0 31.31c0,0 36.46,-27.34 82.39,-35.7l0 26.86c-42.78,8.39 -82.39,33.52 -82.39,33.52l0 164.42 -27.04 0 0 -220.42z"/>
     <polygon class="fil0" points="1965.41,1964.45 2132.52,1964.45 2132.52,1988.28 1998.32,2161.1 2132.52,2161.1 2132.52,2184.87 1965.41,2184.87 1965.41,2161.1 2100.07,1988.28 1965.41,1988.28 "/>
     <path class="fil0" d="M2349.54 2148.32c1.35,12.78 14.41,17.59 29.26,19.4l-1.35 21.12c-22.08,0 -38.72,-4.41 -50.89,-17.62 0,0 -42.33,18.06 -84.65,18.06 -39.64,0 -61.68,-22.48 -61.68,-66.56 0,-40.51 20.7,-59.96 66.18,-64.34l76.57 -7.51 0 -19.83c0,-33.07 -15.33,-46.28 -44.13,-46.28 -32.44,0 -85.12,6.21 -85.12,6.21l-1.37 -21.65c0,0 51.79,-8.82 88.27,-8.82 46.81,0 68.9,22.95 68.9,70.55l0 117.29zm-99.97 -69.24l0 0c-30.17,2.67 -41.42,16.78 -41.42,43.19 0,28.22 12.61,44.09 37.38,44.09 35.59,0 77.47,-14.96 77.47,-14.96l0 -79.82 -73.42 7.5z"/>
     <polygon class="fil0" points="2538.17,1964.45 2596.71,2161.94 2614.28,2161.94 2673.27,1964.45 2701.15,1964.45 2634.54,2184.87 2575.56,2184.87 2509.83,1964.45 "/>
     <polygon class="fil0" points="2862.34,1877.62 2912.79,1877.62 3010.96,2145.2 3109.57,1877.62 3159.55,1877.62 3159.55,2184.87 3132.06,2184.87 3132.06,1908.04 3125.79,1908.04 3026.72,2174.75 2994.3,2174.75 2896.14,1908.04 2889.83,1908.04 2889.83,2184.87 2862.34,2184.87 "/>
     <path class="fil0" d="M3394.58 2148.32c1.35,12.78 14.4,17.59 29.27,19.4l-1.35 21.12c-22.07,0 -38.72,-4.41 -50.89,-17.62 0,0 -42.31,18.06 -84.66,18.06 -39.64,0 -61.69,-22.48 -61.69,-66.56 0,-40.51 20.7,-59.96 66.23,-64.34l76.5 -7.51 0 -19.83c0,-33.07 -15.3,-46.28 -44.13,-46.28 -32.37,0 -85.1,6.21 -85.1,6.21l-1.35 -21.65c0,0 51.78,-8.82 88.26,-8.82 46.82,0 68.91,22.95 68.91,70.55l0 117.29zm-99.96 -69.24l0 0c-30.18,2.67 -41.45,16.78 -41.45,43.19 0,28.22 12.62,44.09 37.37,44.09 35.57,0 77.45,-14.96 77.45,-14.96l0 -79.82 -73.37 7.5z"/>
     <path class="fil0" d="M3477.88 1964.45l27 0 0 31.31c0,0 36.47,-27.34 82.4,-35.7l0 26.86c-42.79,8.39 -82.4,33.52 -82.4,33.52l0 164.42 -27 0 0 -220.42z"/>
     <path class="fil0" d="M3634.08 1876.33l27.03 0 0 33.04 -27.03 0 0 -33.04zm0 88.12l0 0 27.03 0 0 220.42 -27.03 0 0 -220.42z"/>
     <path class="fil0" d="M3917.78 2070.73c0,85.06 -22.48,118.54 -104.89,118.54 -28.39,0 -72.52,-4.41 -72.52,-4.41l0 -318.25 27.03 0 0 109.31c0,0 35.11,-15.44 70.25,-15.44 61.24,0 80.13,32.21 80.13,110.25zm-27.92 0.44l0 0c0,-60.41 -10.81,-86.42 -54.03,-86.42 -33.76,0 -68.43,14.1 -68.43,14.1l0 164.03c0,0 31.53,2.59 45,2.59 66.64,0 77.46,-29.99 77.46,-94.29z"/>
     <path class="fil0" d="M4155.07 2071.58c0,78.92 -18.45,117.69 -93.66,117.69 -75.64,0 -95,-34.84 -95,-118.1 0,-78.04 25.24,-110.69 95,-110.69 65.31,0 93.66,33.94 93.66,111.1zm-27.9 0l0 0c0,-63.03 -19.82,-87.27 -65.76,-87.27 -51.75,0 -67.53,21.16 -67.53,86.87 0,67 9.46,94.29 67.53,94.29 58.11,0 65.76,-30.83 65.76,-93.89z"/>
     <path class="fil0" d="M4220.82 1964.45l27.02 0 0 31.31c0,0 36.49,-27.34 82.41,-35.7l0 26.86c-42.81,8.39 -82.41,33.52 -82.41,33.52l0 164.42 -27.02 0 0 -220.42z"/>
     <path class="fil0" d="M4548.62 1964.45l0 220.42 -26.57 0 0 -15.42c0,0 -35.13,19.83 -69.35,19.83 -62.57,0 -75.2,-26.89 -75.2,-109.75l0 -115.07 26.56 0 0 114.2c0,66.11 6.77,86.82 51.8,86.82 33.76,0 66.19,-18.48 66.19,-18.48l0 -182.54 26.57 0z"/>
    </g>
   </g>
   <g>
    <polygon class="fil0" points="3034.58,1739.82 4557.58,1739.82 4557.58,565.59 3034.58,565.59 "/>
    <path class="fil0" d="M2339.74 1147.78c0.01,-0.08 4.53,-36.61 40.63,-37.24 35.52,-0.55 40.6,37.13 40.61,37.24l0.01 0.03 0 120.56 111.93 0 0 -120.56 0 -0.03c0,-0.08 4.5,-36.61 40.6,-37.24 35.53,-0.55 40.6,37.13 40.61,37.24l0 0.03 0 120.56 41.71 0 0 -120.56 0 -0.03c0.02,-0.08 4.55,-36.61 40.63,-37.24 35.55,-0.55 40.6,37.13 40.6,37.24l0 0.03 0 120.56 108.46 0 0 -120.56 0 -0.03c0,-0.11 4.58,-36.61 40.63,-37.24 35.55,-0.55 40.59,37.13 40.59,37.24l0 0.03 0 120.56 90.06 0 0 -296.05 -761.26 0 0 296.05 84.19 0 0 -120.56 0 -0.03zm544.06 -133.05l0 0 75.68 46.79 0.42 0 -0.21 0.38 -4.45 7.13 -0.12 0.23 -0.23 -0.14 -70.99 -43.86 -66.38 43.84 -0.18 0.14 -0.14 -0.21 -4.68 -7.02 -0.15 -0.21 0.22 -0.14 70.97 -46.9 0.12 -0.1 0.13 0.08zm-253.24 -7.31l0 0 139.22 53.87 0.33 0 -0.15 0.34 -3.05 7.85 -0.09 0.23 -0.24 -0.1 -135.98 -52.62 -127.11 52.58 -0.26 0.1 -0.09 -0.23 -3.22 -7.79 -0.1 -0.23 0.23 -0.1 130.33 -53.91 0.09 -0.04 0.1 0.04zm-252.54 7.13l0 0 75.7 46.79 0.43 0 -0.25 0.4 -4.42 7.12 -0.15 0.22 -0.22 -0.14 -71.05 -43.89 -66.36 43.84 -0.21 0.14 -0.15 -0.23 -4.62 -7 -0.13 -0.2 0.22 -0.15 70.93 -46.89 0.14 -0.08 0.13 0.08z"/>
    <path class="fil0" d="M2255.55 1739.82l283.74 0 0 -250.24 0 -0.03c0.02,-0.22 10.65,-68.9 95.67,-70 83.73,-1.18 95.72,69.79 95.74,69.98l0.03 0.03 0 0.03 0 250.24 286.08 0 0 -392.78 -761.26 0 0 392.78zm590 -273.1l0 0c0,-0.09 4.56,-35.92 40.61,-36.53 35.5,-0.6 40.59,36.42 40.59,36.53l0 0.02 0 0.03 0 139.02 0 0.25 -0.23 0 -80.71 0 -0.25 0 0 -0.25 0 -139.02 0 -0.03 0 -0.02zm-465.17 -36.77l0 0c35.52,-0.52 40.6,36.49 40.61,36.6l0.01 0 0 0.03 0 138.99 0 0.28 -0.26 0 -80.73 0 -0.26 0 0 -0.28 0 -138.99 0 -0.03c0.01,-0.11 4.53,-35.9 40.63,-36.6z"/>
    <polygon class="fil0" points="3016.81,1281.12 2255.55,1281.12 2255.55,1333.32 3016.81,1333.32 "/>
    <path class="fil0 str0" d="M2818.21 766.26l-0.02 0c0,0 0,0 -0.03,0l0.05 0z"/>
    <path class="fil0" d="M2340.06 808.8l80.61 0 0.26 0 0 0.25 0 149.12 111.99 0 0 -149.12 0 -0.25 0.23 0 80.57 0 0.26 0 0 0.25 0 149.12 42.02 0 0 -148.85 0 -0.27 0.25 0 80.57 0 0.24 0 0 0.27 0 148.85 108.53 0 0 -148.85 0 -0.27 0.3 0 80.57 0 0.24 0 0 0.27 0 148.85 90.11 0 0 -392.58 -761.26 0 0 392.58 84.25 0 0 -149.12 0 -0.25 0.26 0zm545.48 -92.09l0 0c15.99,0 31.15,4.53 44.11,12.29 13.45,8.07 24.63,19.64 32.02,33.3l0.11 0.22 -0.22 0.13 -7.39 3.97 -0.22 0.1 -0.14 -0.22c-6.6,-12.21 -16.64,-22.59 -28.72,-29.83 -11.66,-6.99 -25.26,-11.06 -39.56,-11.05 -13.96,-0.01 -27.11,4.04 -38.44,10.93 -11.92,7.24 -21.83,17.58 -28.59,29.61l0.63 0.36 -0.94 0 -0.02 0 -0.03 0 -0.41 0 0.08 -0.16 -7.09 -3.96 -0.21 -0.13 0.12 -0.23c7.48,-13.45 18.55,-25.06 31.93,-33.16 12.6,-7.64 27.27,-12.17 42.96,-12.17zm-254.97 -10.5l0 0 139.23 53.84 0.05 0.01 0.04 0.03 0.02 0.03 0.14 0.13 -0.09 0.16 -3.05 7.81 -0.09 0.23 -0.24 -0.1 -135.98 -52.61 -127.11 52.59 -0.26 0.1 -0.09 -0.24 -3.22 -7.79 -0.1 -0.23 0.23 -0.1 130.33 -53.85 0.09 -0.03 0.1 0.03zm-318.29 60.1l0 0 -7.34 -4.12 -0.22 -0.13 0.12 -0.22c7.5,-13.47 18.56,-25.07 31.9,-33.16 12.64,-7.64 27.34,-12.14 43.02,-12.14 16.01,0 31.17,4.54 44.16,12.31 13.45,8.05 24.6,19.61 31.97,33.26l0.13 0.24 -0.24 0.11 -7.4 4.01 -0.23 0.11 -0.13 -0.23c-6.57,-12.22 -16.59,-22.62 -28.67,-29.85 -11.66,-7.01 -25.28,-11.07 -39.59,-11.06 -13.98,-0.02 -27.13,4.04 -38.46,10.9 -11.96,7.26 -21.89,17.65 -28.65,29.76l0 0.42 -0.37 -0.22z"/>
    <polygon class="fil0" points="714.54,1739.82 2237.55,1739.82 2237.55,565.59 714.54,565.59 "/>
   </g>
   <g>
    <path class="fil0" d="M2774.06 83.38l-275.33 0c-65.69,30.45 -117.84,78.76 -151.61,137.72 -33.43,58.37 -48.89,127.2 -41.67,199.52l197.99 0 45.15 -127.81 -15.14 -15.67 -0.08 -0.09 0 -0.1 0 -24.51 0 -0.09 0.06 -0.08c0.09,-0.1 29.22,-34.41 105.67,-35.34 66.54,-0.8 100.4,35.61 100.52,35.7l0.09 0.08 0 0.1 0 24.41 0 0.11 -0.09 0.07 -14.5 14.6 44.66 128.61 197.56 0c9.2,-70.18 -7.81,-139.89 -41.57,-198.8 -35.62,-62.21 -89.93,-112.41 -151.71,-138.45z"/>
    <path class="fil0" d="M2989.67 445.25c-1.85,-0.11 -3.93,-0.45 -6,-0.99 -1.88,-0.49 -3.81,-1.18 -5.62,-2.04l-9.22 18.14 0 79.78 47.56 0 0 -79.72 -9.92 -17.83c-2.07,0.83 -4.31,1.48 -6.68,1.93 -2.45,0.47 -5.03,0.74 -7.65,0.74l-0.03 0 -1.35 0 -1.03 0 -0.04 0z"/>
    <path class="fil0" d="M3010.22 427.43l-11.73 -176.96 0 -0.02c0,-2.55 -0.99,-4.83 -2.57,-6.47 -1.59,-1.68 -3.83,-2.68 -6.21,-2.7 -2.45,0.02 -4.66,1.02 -6.26,2.73 -1.56,1.63 -2.57,3.93 -2.57,6.56l-5.91 176.7 0 0.01c-0.05,0.69 0.39,1.72 1.29,2.85 0.81,1 1.96,2.06 3.49,2.99 1.25,0.81 2.62,1.44 3.99,1.94 6.13,2.16 15.6,1.22 21.25,-1.99 3.31,-1.87 5.1,-4.15 5.22,-5.64z"/>
    <path class="fil0" d="M2288.42 444.27c-2.07,0.53 -4.13,0.87 -6.01,0.98l-1.05 0 -1.39 0c-2.64,0 -5.22,-0.25 -7.67,-0.7 -2.36,-0.45 -4.62,-1.11 -6.67,-1.95l-9.91 17.86 0 79.68 47.53 0 0 -79.78 -9.19 -18.11c-1.83,0.85 -3.77,1.54 -5.64,2.02z"/>
    <path class="fil0" d="M2273.61 250.47l-11.74 176.96c0.13,1.49 1.93,3.79 5.23,5.66 6.91,3.9 18.36,4.49 25.23,0.03l0.02 0c1.51,-0.93 2.67,-1.99 3.47,-2.99 0.9,-1.11 1.35,-2.15 1.29,-2.82l0 -0.02 -5.88 -176.68 0 -0.02c-0.03,-2.63 -1,-4.92 -2.57,-6.58 -1.61,-1.67 -3.83,-2.68 -6.25,-2.7 -2.44,0.02 -4.65,1.03 -6.25,2.7 -1.57,1.61 -2.55,3.89 -2.55,6.44l0 0.02z"/>
    <polygon class="fil0" points="2474.49,0 2498.71,73.21 2774,73.21 2798.13,0 "/>
    <path class="fil0" d="M2969.98 437.76c-1.01,-1.07 -1.91,-2.24 -2.65,-3.5 -0.74,-1.28 -1.31,-2.69 -1.64,-4.21l-196.53 0 0 110.08 189.94 0 0 -80.97 0 -0.06 0.03 -0.05 10.85 -21.29z"/>
    <path class="fil0" d="M2304.82 433.44c-0.74,1.36 -1.66,2.6 -2.71,3.71l10.66 21.41 0.03 0.06 0 0.05 0 81.47 190.13 0 0 -110.71 -196.62 0c-0.3,1.45 -0.83,2.79 -1.48,4.01z"/>
    <path class="fil0" d="M2714.14 290.59l16.33 -17.76 -0.03 -16.46c-1.63,-1.62 -32.25,-30.6 -93.58,-30.06 -62.81,0.58 -92.78,28.29 -94.5,29.92l0 16.74 16.45 16.89 0.11 0.12 -0.05 0.14 -46.67 132.78 0 117.24 248.13 0 0 -117.07 -46.26 -132.21 -0.03 -0.14 0.1 -0.12zm-11 -15.66l0 0c-6.19,-6.03 -16.01,-11.34 -28.06,-15.06 -11.4,-3.52 -24.78,-5.62 -38.85,-5.59 -13.76,-0.03 -26.66,2.05 -37.72,5.52 -11.9,3.74 -21.66,9.1 -28,15.1l-0.19 0.18 -0.16 -0.19 -5.06 -5.4 -0.18 -0.18 0.19 -0.17c7.39,-6.91 17.86,-12.67 30.38,-16.67 12.01,-3.85 25.89,-6.08 40.74,-6.12 15.16,0.04 29.56,2.25 41.96,6.19 12.59,3.97 23.16,9.71 30.45,16.68l0.16 0.18 -0.16 0.18 -5.16 5.35 -0.19 0.18 -0.16 -0.18z"/>
   </g>
  </g>
  <path class="fil1" d="M1456.8 298.06c16.91,-50.8 21.62,-63.96 27.73,-80.89l-2.35 -2.82c-21.63,1.88 -50.78,10.82 -59.26,14.11 -2.33,1.41 -2.33,5.64 0,7.52l8.48 3.77c7.06,3.29 11.77,7.99 0.47,40.91l-74.77 222.42c-7.99,23.98 -10.35,32.45 -10.35,39.97 0,7.52 4.24,14.1 18.34,14.1 39.03,0 68.67,-39.03 80.88,-62.54 0,-4.7 -2.8,-7.06 -7.52,-6.58 -21.64,24.46 -43.73,47.49 -54.09,47.49 -5.17,0 -5.64,-4.7 -1.88,-15.52l74.32 -221.94z"/>
  <path class="fil2" d="M1563.57 355.55c-13.87,0 -32.54,3.83 -57.4,22.96 -52.13,40.18 -71.27,98.54 -71.27,128.67 0,23.43 10.05,50.22 38.75,50.22 20.08,0 47.36,-7.65 76.53,-43.52 0.95,-4.3 -1.92,-8.13 -6.22,-8.13 -21.05,18.18 -33.01,27.74 -50.22,27.74 -12.92,0 -22.96,-11 -22.96,-27.26 0,-19.13 3.36,-34.44 6.71,-42.57 68.87,-19.13 116.22,-43.05 116.22,-79.38 0,-12.45 -11,-28.71 -30.13,-28.71zm-9.56 14.82l0 0c8.58,0 10.99,6.21 10.99,11 0,4.3 -3.83,18.65 -18.65,32.52 -17.7,16.75 -32.53,25.84 -64.08,35.4 5.73,-13.87 16.74,-35.88 35.38,-55.96 17.22,-18.65 29.66,-22.96 36.36,-22.96z"/>
  <path class="fil3" d="M1721.23 371.32c6.47,-3.48 9.48,-13.46 6,-18.44l-54.36 0 14.47 -48.86c-3.99,-4.98 -13.96,-5.98 -18.95,-2.99l-27.92 49.36 -39.89 6.98c-4.99,2 -6.47,8.97 -5.48,13.96l38.89 0 -48.36 142.09c-5,14.95 -6.98,21.93 -6.98,28.41 0,5.99 6.48,13.46 13.46,13.46 20.93,0 67.81,-30.41 95.71,-71.79 1,-5.98 -2,-8.97 -6.98,-8.97 -16.45,18.95 -49.36,44.87 -56.83,44.87 -4,0 -6.48,-2.99 -3.5,-12.46l46.38 -135.61 54.33 0z"/>
  <path class="fil4" d="M446.86 56.09c-51.27,6.4 -65.7,16.02 -80.12,44.86l-150.62 310.85c-19.22,32.05 -16.02,51.27 12.83,52.88 192.27,9.61 358.91,68.89 358.91,254.77 0,229.12 -298.02,373.33 -576.83,381.34 -16.02,12.82 -16.02,51.27 9.62,57.68 128.18,-3.2 294.82,-32.04 423,-88.12 160.24,-70.5 307.65,-209.91 310.86,-386.15 3.2,-243.55 -193.88,-318.86 -400.57,-347.7 -16.04,-1.61 -24.04,-6.41 -12.82,-33.65l28.83 -67.3c12.82,-28.85 28.85,-32.05 67.3,-36.86l358.93 -48.07c35.24,-28.84 73.7,-84.92 89.71,-129.78 0,-6.4 -6.4,-19.22 -19.21,-19.22l-419.8 54.48z"/>
  <path class="fil5" d="M968.21 745.66c86.46,0 161.55,-47.79 216.15,-113.77 86.46,-104.67 152.46,-275.33 152.46,-405.02 0,-104.67 -31.86,-225.27 -177.49,-225.27 -86.46,0 -159.27,50.06 -220.71,120.6 -86.47,100.12 -150.18,263.95 -150.18,402.75 0,102.39 34.12,220.71 179.76,220.71zm192.27 -700.82l0 0c55.74,0 64.84,56.88 64.84,109.21 0,102.4 -53.46,261.67 -102.38,373.17 -33,75.09 -86.48,175.21 -151.31,175.21 -46.65,0 -69.41,-38.68 -69.41,-104.67 0,-91.02 38.68,-235.51 91.01,-348.14 45.52,-96.71 100.13,-204.78 167.26,-204.78z"/>
 </g>
</svg>
