<?xml version="1.0" encoding="UTF-8"?>
<svg id="Layer_1" data-name="Layer 1" xmlns="http://www.w3.org/2000/svg" version="1.1" viewBox="0 0 595.28 841.89">
  <defs>
    <style>
      .cls-1 {
        fill: #006385;
        stroke-width: 0px;
      }
    </style>
  </defs>
  <path class="cls-1" d="M288.82,543.86"/>
  <path class="cls-1" d="M288.85,529.25"/>
  <g>
    <g>
      <path class="cls-1" d="M315.89,496.94c-.13,0-.28-.04-.42-.11l-.35.67v2.92h1.76v-2.92l-.37-.66c-.16.07-.33.09-.53.1h-.09Z"/>
      <path class="cls-1" d="M316.65,496.3l-.43-6.45c0-.2-.15-.34-.33-.34-.17,0-.33.15-.33.35l-.21,6.44s.05.15.18.22c.1.06.22.1.32.11h.24c.36-.03.57-.22.57-.32Z"/>
      <path class="cls-1" d="M315.9,496.63s.05,0,.08,0c.04,0,.06-.01.09-.01h-.24s.04.01.06.01Z"/>
    </g>
    <g>
      <path class="cls-1" d="M290.1,496.94c.13,0,.28-.04.43-.11l.34.67v2.92h-1.75v-2.92l.37-.66c.15.07.33.1.53.1h.09Z"/>
      <path class="cls-1" d="M289.34,496.3l.42-6.45c0-.2.15-.34.33-.34s.33.15.33.35l.21,6.44s-.06.15-.18.22c-.1.06-.21.1-.32.11h-.24c-.37-.03-.57-.22-.57-.32Z"/>
      <path class="cls-1" d="M290.1,496.63s-.06,0-.08,0c-.04,0-.06-.01-.1-.01h.24s-.04.01-.06.01Z"/>
    </g>
  </g>
  <g>
    <rect class="cls-1" x="233.57" y="501.12" width="55.01" height="42.42"/>
    <rect class="cls-1" x="317.34" y="501.12" width="55.02" height="42.42"/>
    <g>
      <path class="cls-1" d="M292.27,522.16s.17-1.32,1.46-1.34c1.27-.02,1.46,1.34,1.46,1.34v4.36h4.06v-4.36s.16-1.32,1.46-1.34c1.28-.02,1.45,1.34,1.45,1.34v4.36h1.53v-4.36s.16-1.32,1.46-1.34c1.27-.02,1.45,1.34,1.45,1.34v4.36h3.94v-4.36s.16-1.32,1.46-1.34c1.27-.02,1.46,1.34,1.46,1.34v4.36h3.27v-10.89h-27.51v10.89h3.06v-4.36ZM311.9,517.36l2.73,1.69h0l-.16.26-2.57-1.59-2.4,1.59-.17-.26,2.56-1.69ZM302.76,517.1l5.03,1.95h0l-.11.28-4.92-1.9-4.59,1.9-.12-.28,4.71-1.95ZM293.64,517.35l2.73,1.69h0l-.16.26-2.57-1.59-2.4,1.58-.17-.25,2.56-1.69Z"/>
      <path class="cls-1" d="M292.27,509.92h2.91v5.4h4.06v-5.4h2.9v5.4h1.54v-5.38h2.91v5.38h3.94v-5.38h2.91v5.38h3.27v-14.2h-27.51v14.2h3.06v-5.4ZM311.97,506.6c1.17,0,2.22.67,2.74,1.64l-.27.14c-.47-.87-1.41-1.48-2.47-1.48s-1.96.62-2.43,1.48h0,0l-.26-.15c.52-.94,1.53-1.63,2.7-1.63ZM302.76,506.22l5.03,1.95h0l-.11.28-4.92-1.9-4.59,1.9-.12-.28,4.71-1.95ZM291.27,508.37l-.27-.15c.53-.94,1.53-1.63,2.7-1.64,1.17,0,2.22.68,2.74,1.64l-.26.14c-.47-.87-1.42-1.48-2.47-1.48s-1.96.62-2.43,1.48h0Z"/>
      <path class="cls-1" d="M289.21,543.54h10.27v-9.04s.38-2.48,3.45-2.52c3.02-.04,3.45,2.52,3.45,2.52v9.04h10.35v-14.2h-27.51v14.2ZM310.54,533.67s.16-1.29,1.46-1.31c1.27-.02,1.46,1.31,1.46,1.31v5.02h-2.91v-5.02ZM293.73,532.35c1.27-.02,1.46,1.32,1.46,1.32v5.02h-2.92v-5.02s.17-1.29,1.46-1.32Z"/>
      <rect class="cls-1" x="289.21" y="526.82" width="27.51" height="2.22"/>
      <rect class="cls-1" x="289.21" y="515.32" width="3.06" height="0"/>
      <rect class="cls-1" x="313.45" y="515.32" width="3.27" height="0"/>
      <rect class="cls-1" x="306.6" y="515.32" width="3.94" height="0"/>
      <rect class="cls-1" x="302.15" y="515.32" width="1.54" height="0"/>
      <rect class="cls-1" x="295.19" y="515.32" width="4.06" height="0"/>
      <polygon class="cls-1" points="309.54 508.38 309.54 508.38 309.54 508.38 309.54 508.38"/>
    </g>
  </g>
  <polygon class="cls-1" points="297.09 480.7 297.98 483.39 308.03 483.39 308.92 480.7 297.09 480.7"/>
  <path class="cls-1" d="M308.03,483.74h-10.04c-4.78,2.21-7.59,7-7.06,12.32h7.24l1.64-4.67-.55-.57v-.9s1.06-1.25,3.85-1.28c2.42-.03,3.66,1.3,3.66,1.3v.89l-.53.54,1.63,4.7h7.22c.69-5.27-2.66-10.46-7.05-12.32Z"/>
  <path class="cls-1" d="M315.19,496.67c-.08-.08-.14-.17-.16-.28h-7.19v4.03h6.95v-2.97l.4-.78Z"/>
  <path class="cls-1" d="M290.81,496.65c.08-.08.13-.18.16-.29h7.19v4.06h-6.95v-2.98l-.39-.79Z"/>
  <path class="cls-1" d="M305.85,491.31l.6-.65v-.61s-1.12-1.12-3.42-1.1c-2.36.02-3.46,1.1-3.46,1.1v.62l.6.62-1.7,4.85v4.29h9.07v-4.28l-1.69-4.82ZM305.45,490.73c-.44-.43-1.39-.76-2.45-.75-1.05,0-1.96.33-2.41.75l-.18-.2c.53-.49,1.48-.83,2.59-.83,1.11,0,2.11.33,2.63.83l-.19.19Z"/>
  <g>
    <line class="cls-1" x1="182.79" y1="571.27" x2="424.34" y2="571.27"/>
    <rect class="cls-1" x="182.79" y="570.81" width="241.55" height=".93"/>
  </g>
  <g>
    <path class="cls-1" d="M238.18,559.34c1.67,0,2.72-.58,2.72-2.33v-7.82h1.22v7.82c0,2.54-1.4,3.52-3.94,3.52s-3.84-.96-3.84-3.52v-7.82h1.24v7.82c0,1.74,1.03,2.33,2.61,2.33Z"/>
    <path class="cls-1" d="M244.46,560.38v-8.04h1.21v.58s1.29-.74,2.49-.74c2.2,0,2.7,1.09,2.7,4.02v4.18h-1.19v-4.2c0-2.14-.24-2.93-1.74-2.93-1.16,0-2.27.61-2.27.61v6.51h-1.21Z"/>
    <path class="cls-1" d="M253.18,549.13h1.19v1.4h-1.19v-1.4ZM253.18,552.34h1.19v8.04h-1.19v-8.04Z"/>
    <path class="cls-1" d="M256.99,552.34l1.93,7.01h.6l1.96-7.01h1.22l-2.28,8.04h-2.41l-2.27-8.04h1.25Z"/>
    <path class="cls-1" d="M269.87,559.31l.03.98s-1.82.26-3.12.26c-2.41,0-3.2-1.4-3.2-4.13,0-3.06,1.33-4.23,3.38-4.23s3.23,1.13,3.23,3.76l-.06.93h-5.32c.02,1.69.53,2.57,2.12,2.57,1.21,0,2.94-.14,2.94-.14ZM268.99,555.9c0-1.93-.63-2.64-2.03-2.64s-2.16.76-2.16,2.64h4.18Z"/>
    <path class="cls-1" d="M272.01,552.34h1.21v1.06s1.24-.93,2.8-1.22v1.25c-1.51.29-2.8,1.11-2.8,1.11v5.84h-1.21v-8.04Z"/>
    <path class="cls-1" d="M282.67,553.53s-1.79-.26-2.81-.26-1.74.26-1.74,1.21c0,.76.37.98,1.96,1.22,2.12.34,2.9.77,2.9,2.33,0,1.88-1.19,2.51-3.14,2.51-1.03,0-2.83-.31-2.83-.31l.06-1.05s1.83.27,2.65.27c1.32,0,2.03-.29,2.03-1.38,0-.84-.42-1.03-2.03-1.29-1.96-.3-2.83-.69-2.83-2.27,0-1.77,1.43-2.35,2.89-2.35,1.21,0,2.91.31,2.91.31l-.03,1.04Z"/>
    <path class="cls-1" d="M284.86,549.13h1.19v1.4h-1.19v-1.4ZM284.86,552.34h1.19v8.04h-1.19v-8.04Z"/>
    <path class="cls-1" d="M289.82,553.44v3.75c0,1.75.1,2.24,1.16,2.24.45,0,1.43-.08,1.43-.08l.06,1.04s-1.06.18-1.62.18c-1.66,0-2.24-.63-2.24-2.94v-4.18h-1.14v-1.09h1.14v-2.46h1.21v2.46h2.54v1.09h-2.54Z"/>
    <path class="cls-1" d="M294.14,552.34l2.01,6.88h.55l2.01-6.88h1.21l-3.34,11.61h-1.21l1.03-3.57h-1.17l-2.28-8.04h1.21Z"/>
    <path class="cls-1" d="M311.13,556.28c0,2.78-.71,4.26-3.43,4.26s-3.46-1.35-3.46-4.29c0-2.77.92-4.07,3.46-4.07s3.43,1.35,3.43,4.1ZM309.89,556.28c0-2.14-.64-3.01-2.19-3.01-1.7,0-2.22.77-2.22,2.98s.32,3.22,2.22,3.22,2.19-1.06,2.19-3.18Z"/>
    <path class="cls-1" d="M314.26,560.38h-1.19v-6.95h-1.01v-1.09h1.01v-.72c0-2.32.58-2.93,2.15-2.93.56,0,1.62.11,1.62.11l-.02,1s-.9-.03-1.37-.03c-.9,0-1.21.39-1.21,1.87v.71h2.35v1.09h-2.35v6.95Z"/>
    <path class="cls-1" d="M321.57,549.19h2.16l3.23,9.41,3.25-9.41h2.14v11.19h-1.24v-9.75h-.22l-3.25,9.34h-1.37l-3.23-9.34h-.23v9.75h-1.24v-11.19Z"/>
    <path class="cls-1" d="M340.43,558.89c.05.45.42.64.93.71l-.03.95c-.85,0-1.43-.16-1.91-.64,0,0-1.45.64-2.89.64s-2.27-.84-2.27-2.46.8-2.22,2.46-2.38l2.52-.24v-.66c0-1.08-.5-1.53-1.46-1.53-1.13,0-3.02.21-3.02.21l-.05-.93s1.88-.37,3.18-.37c1.71,0,2.54.84,2.54,2.62v4.08ZM336.86,556.61c-.98.1-1.38.56-1.38,1.45,0,.93.42,1.48,1.24,1.48,1.11,0,2.52-.5,2.52-.5v-2.65l-2.38.23Z"/>
    <path class="cls-1" d="M342.95,552.34h1.21v1.06s1.24-.93,2.8-1.22v1.25c-1.51.29-2.8,1.11-2.8,1.11v5.84h-1.21v-8.04Z"/>
    <path class="cls-1" d="M348.25,549.13h1.19v1.4h-1.19v-1.4ZM348.25,552.34h1.19v8.04h-1.19v-8.04Z"/>
    <path class="cls-1" d="M358.32,556.22c0,3.18-.87,4.33-3.79,4.33-.97,0-2.7-.18-2.7-.18v-11.53h1.21v3.88s1.21-.53,2.35-.53c2.19,0,2.94,1.16,2.94,4.04ZM357.1,556.25c0-2.09-.42-2.96-1.83-2.96-1.06,0-2.24.43-2.24.43v5.64s1.04.1,1.48.1c2.2,0,2.59-1,2.59-3.22Z"/>
    <path class="cls-1" d="M366.49,556.28c0,2.78-.71,4.26-3.43,4.26s-3.46-1.35-3.46-4.29c0-2.77.92-4.07,3.46-4.07s3.43,1.35,3.43,4.1ZM365.25,556.28c0-2.14-.64-3.01-2.19-3.01-1.7,0-2.22.77-2.22,2.98s.32,3.22,2.22,3.22,2.19-1.06,2.19-3.18Z"/>
    <path class="cls-1" d="M368.38,552.34h1.21v1.06s1.24-.93,2.8-1.22v1.25c-1.51.29-2.8,1.11-2.8,1.11v5.84h-1.21v-8.04Z"/>
  </g>
  <g>
    <path class="cls-1" d="M256.58,583.92h6.77v1.17h-5.55v4.33h4.58v1.17h-4.58v4.52h-1.22v-11.19Z"/>
    <path class="cls-1" d="M270.67,593.61c.05.45.42.64.93.71l-.03.95c-.85,0-1.43-.16-1.91-.64,0,0-1.45.64-2.9.64s-2.27-.84-2.27-2.46.8-2.22,2.46-2.38l2.53-.24v-.66c0-1.08-.5-1.53-1.46-1.53-1.13,0-3.02.21-3.02.21l-.05-.93s1.88-.37,3.18-.37c1.7,0,2.54.84,2.54,2.62v4.08ZM267.1,591.33c-.98.1-1.38.56-1.38,1.45,0,.93.42,1.48,1.24,1.48,1.11,0,2.53-.5,2.53-.5v-2.65l-2.38.23Z"/>
    <path class="cls-1" d="M278.1,587.15l-.03,1.04s-1.29-.14-1.9-.14c-1.85,0-2.35.77-2.35,2.9,0,2.35.37,3.2,2.35,3.2.61,0,1.91-.14,1.91-.14l.05,1.04s-1.51.23-2.24.23c-2.57,0-3.31-1.17-3.31-4.33,0-2.91.93-4.04,3.33-4.04.74,0,2.19.24,2.19.24Z"/>
    <path class="cls-1" d="M286.06,587.07v8.04h-1.19v-.51s-1.25.68-2.38.68c-2.25,0-2.72-1.03-2.72-4v-4.2h1.19v4.18c0,2.22.19,2.94,1.71,2.94,1.06,0,2.2-.59,2.2-.59v-6.53h1.19Z"/>
    <path class="cls-1" d="M288.51,583.56h1.19v11.55h-1.19v-11.55Z"/>
    <path class="cls-1" d="M293.51,588.16v3.75c0,1.75.1,2.24,1.16,2.24.45,0,1.43-.08,1.43-.08l.06,1.04s-1.06.18-1.62.18c-1.66,0-2.24-.63-2.24-2.94v-4.18h-1.14v-1.09h1.14v-2.46h1.21v2.46h2.54v1.09h-2.54Z"/>
    <path class="cls-1" d="M297.84,587.07l2.01,6.88h.55l2.01-6.88h1.21l-3.35,11.61h-1.21l1.03-3.57h-1.17l-2.28-8.04h1.21Z"/>
    <path class="cls-1" d="M314.82,591.01c0,2.78-.71,4.26-3.43,4.26s-3.46-1.35-3.46-4.29c0-2.77.92-4.07,3.46-4.07s3.43,1.35,3.43,4.1ZM313.58,591.01c0-2.14-.64-3.01-2.19-3.01-1.7,0-2.22.77-2.22,2.98s.32,3.22,2.22,3.22,2.19-1.06,2.19-3.18Z"/>
    <path class="cls-1" d="M317.96,595.11h-1.19v-6.95h-1.01v-1.09h1.01v-.72c0-2.32.58-2.93,2.15-2.93.56,0,1.62.11,1.62.11l-.02,1s-.9-.03-1.37-.03c-.9,0-1.21.39-1.21,1.87v.71h2.35v1.09h-2.35v6.95Z"/>
    <path class="cls-1" d="M327.34,583.92h2.72l3.01,11.18h-1.22l-.85-2.8h-4.66l-.8,2.81h-1.24l3.06-11.19ZM326.61,591.1h4.12l-1.66-6.05h-.8l-1.66,6.05Z"/>
    <path class="cls-1" d="M334.61,587.07h1.21v1.06s1.24-.93,2.8-1.22v1.25c-1.51.29-2.8,1.11-2.8,1.11v5.84h-1.21v-8.04Z"/>
    <path class="cls-1" d="M341.4,588.16v3.75c0,1.75.1,2.24,1.16,2.24.45,0,1.43-.08,1.43-.08l.06,1.04s-1.06.18-1.62.18c-1.66,0-2.24-.63-2.24-2.94v-4.18h-1.14v-1.09h1.14v-2.46h1.21v2.46h2.54v1.09h-2.54Z"/>
    <path class="cls-1" d="M350.79,588.26s-1.79-.26-2.81-.26-1.74.26-1.74,1.21c0,.76.37.98,1.96,1.22,2.12.34,2.89.77,2.89,2.33,0,1.88-1.19,2.51-3.14,2.51-1.03,0-2.83-.31-2.83-.31l.06-1.05s1.83.27,2.65.27c1.32,0,2.03-.29,2.03-1.38,0-.84-.42-1.03-2.03-1.29-1.96-.3-2.83-.69-2.83-2.27,0-1.77,1.43-2.35,2.89-2.35,1.21,0,2.91.31,2.91.31l-.03,1.04Z"/>
  </g>
</svg>