<svg xmlns="http://www.w3.org/2000/svg" id="Layer_1" data-name="Layer 1" version="1.1" viewBox="411 285.6 395.5 225.5">
  <defs>
    <style>
      .cls-1 {
        fill: #006385;
        stroke-width: 0px;
      }
    </style>
  </defs>
  <g>
    <path class="cls-1" d="M423,508.3c5.2,0,8.3-1.8,8.3-7v-22.4h2.8v22.4c0,7-4,9.7-11.2,9.7s-10.9-2.6-10.9-9.7v-22.4h2.9v22.4c0,5.2,3.1,7,8,7Z"/>
    <path class="cls-1" d="M442.3,510.5v-22.7h2.8v1.7s3.9-2.1,7.5-2.1c6.3,0,7.7,2.9,7.7,11.3v11.8h-2.7v-11.8c0-6.6-.7-8.8-5.4-8.8s-7.1,1.9-7.1,1.9v18.7h-2.8Z"/>
    <path class="cls-1" d="M468.3,478.8h2.8v3.4h-2.8v-3.4ZM468.3,487.9h2.8v22.7h-2.8v-22.7Z"/>
    <path class="cls-1" d="M479.2,487.9l6,20.3h1.8l6.1-20.3h2.9l-6.9,22.7h-6.1l-6.8-22.7h2.9Z"/>
    <path class="cls-1" d="M517.5,508.1v2.3c0,0-5.1.6-8.8.6-6.9,0-9-4.1-9-11.7s3.9-11.8,9.5-11.8,9.1,3.1,9.1,10.7v2.2h-15.9c0,5.4,1.6,8.2,6.4,8.2s8.5-.4,8.5-.4ZM515.7,498.1c0-6-2-8.2-6.3-8.2s-6.7,2.3-6.7,8.2h13.1Z"/>
    <path class="cls-1" d="M525,487.9h2.8v3.2s3.8-2.8,8.5-3.7v2.8c-4.4.9-8.5,3.4-8.5,3.4v16.9h-2.8v-22.7Z"/>
    <path class="cls-1" d="M539.7,487.9h17.2v2.5l-13.8,17.8h13.8v2.4h-17.2v-2.4l13.9-17.8h-13.9v-2.5Z"/>
    <path class="cls-1" d="M579.3,506.8c.1,1.3,1.5,1.8,3,2v2.2c-2.4,0-4.1-.5-5.4-1.8,0,0-4.4,1.9-8.7,1.9s-6.3-2.3-6.3-6.9,2.1-6.2,6.8-6.6l7.9-.8v-2c0-3.4-1.6-4.8-4.5-4.8s-8.8.6-8.8.6v-2.2c-.1,0,5.2-.9,8.9-.9s7.1,2.4,7.1,7.3v12.1ZM569,499.7c-3.1.3-4.3,1.7-4.3,4.4s1.3,4.5,3.8,4.5c3.7,0,8-1.5,8-1.5v-8.2l-7.6.8Z"/>
    <path class="cls-1" d="M598.7,487.9l6,20.3h1.8l6.1-20.3h2.9l-6.9,22.7h-6.1l-6.8-22.7h2.9Z"/>
    <path class="cls-1" d="M632,478.9h5.2l10.1,27.5,10.2-27.5h5.1v31.6h-2.8v-28.5h-.6l-10.2,27.5h-3.3l-10.1-27.5h-.6v28.5h-2.8v-31.6Z"/>
    <path class="cls-1" d="M686.8,506.8c.1,1.3,1.5,1.8,3,2v2.2c-2.4,0-4.1-.5-5.4-1.8,0,0-4.4,1.9-8.7,1.9s-6.3-2.3-6.3-6.9,2.1-6.2,6.8-6.6l7.9-.8v-2c0-3.4-1.6-4.8-4.5-4.8s-8.8.6-8.8.6v-2.2c-.1,0,5.2-.9,8.9-.9s7.1,2.4,7.1,7.3v12.1ZM676.5,499.7c-3.1.3-4.3,1.7-4.3,4.4s1.3,4.5,3.8,4.5c3.7,0,8-1.5,8-1.5v-8.2l-7.6.8Z"/>
    <path class="cls-1" d="M695.4,487.9h2.8v3.2s3.8-2.8,8.5-3.7v2.8c-4.4.9-8.5,3.4-8.5,3.4v16.9h-2.8v-22.7Z"/>
    <path class="cls-1" d="M711.5,478.8h2.8v3.4h-2.8v-3.4ZM711.5,487.9h2.8v22.7h-2.8v-22.7Z"/>
    <path class="cls-1" d="M740.7,498.8c0,8.8-2.3,12.2-10.8,12.2s-7.5-.5-7.5-.5v-32.8h2.8v11.3s3.6-1.6,7.2-1.6c6.3,0,8.2,3.3,8.2,11.3ZM737.8,498.8c0-6.2-1.1-8.9-5.6-8.9s-7,1.5-7,1.5v16.9s3.2.3,4.6.3c6.9,0,8-3.1,8-9.7Z"/>
    <path class="cls-1" d="M765.1,498.9c0,8.1-1.9,12.1-9.6,12.1s-9.8-3.6-9.8-12.2,2.6-11.4,9.8-11.4,9.6,3.5,9.6,11.4ZM762.2,498.9c0-6.5-2-9-6.8-9s-7,2.2-7,8.9,1,9.7,7,9.7,6.8-3.2,6.8-9.7Z"/>
    <path class="cls-1" d="M771.9,487.9h2.8v3.2s3.8-2.8,8.5-3.7v2.8c-4.4.9-8.5,3.4-8.5,3.4v16.9h-2.8v-22.7Z"/>
    <path class="cls-1" d="M805.6,487.9v22.7h-2.7v-1.6s-3.6,2-7.1,2c-6.4,0-7.7-2.8-7.7-11.3v-11.8h2.7v11.8c0,6.8.7,8.9,5.3,8.9s6.8-1.9,6.8-1.9v-18.8h2.7Z"/>
  </g>
  <path class="cls-1" d="M568.4,465.7"/>
  <path class="cls-1" d="M568.5,424"/>
  <g>
    <g>
      <path class="cls-1" d="M645.6,331.9c-.4,0-.8-.1-1.2-.3l-1,1.9v8.3h5v-8.3l-1-1.9c-.4.2-1,.3-1.5.3,0,0-.2,0-.3,0Z"/>
      <path class="cls-1" d="M647.8,330.1l-1.2-18.4c0-.6-.4-1-.9-1-.5,0-.9.4-.9,1l-.6,18.4c0,.1.2.4.5.6.3.2.6.3.9.3h.7c1,0,1.6-.6,1.6-.9Z"/>
      <path class="cls-1" d="M645.6,331c0,0,.2,0,.2,0s.2,0,.3,0h-.7c0,0,.1,0,.2,0Z"/>
    </g>
    <g>
      <path class="cls-1" d="M572.1,331.9c.4,0,.8-.1,1.2-.3l1,1.9v8.3h-5v-8.3l1-1.9c.4.2,1,.3,1.5.3,0,0,.2,0,.3,0Z"/>
      <path class="cls-1" d="M569.9,330.1l1.2-18.4c0-.6.4-1,.9-1,.5,0,.9.4.9,1l.6,18.4c0,.1-.2.4-.5.6-.3.2-.6.3-.9.3h-.7c-1,0-1.6-.6-1.6-.9Z"/>
      <path class="cls-1" d="M572.1,331c0,0-.2,0-.2,0s-.2,0-.3,0h.7c0,0-.1,0-.2,0Z"/>
    </g>
  </g>
  <g>
    <rect class="cls-1" x="411" y="343.8" width="156.8" height="120.9"/>
    <rect class="cls-1" x="649.7" y="343.8" width="156.8" height="120.9"/>
    <g>
      <path class="cls-1" d="M578.3,403.8s.5-3.7,4.2-3.8c3.6,0,4.2,3.8,4.2,3.8v12.4h11.6v-12.4s.5-3.7,4.2-3.8c3.6,0,4.2,3.8,4.2,3.8v12.4h4.3v-12.4s.5-3.7,4.2-3.8c3.6,0,4.2,3.8,4.2,3.8v12.4h11.2v-12.4s.5-3.7,4.2-3.8c3.6,0,4.2,3.8,4.2,3.8v12.4h9.3v-31h-78.4v31h8.7v-12.4ZM634.2,390.1l7.8,4.8h0l-.5.7-7.3-4.5-6.8,4.5-.5-.7,7.3-4.8ZM608.2,389.4l14.3,5.5h0l-.3.8-14-5.4-13.1,5.4-.3-.8,13.4-5.5ZM582.2,390.1l7.8,4.8h0l-.5.7-7.3-4.5-6.8,4.5-.5-.7,7.3-4.8Z"/>
      <path class="cls-1" d="M578.3,368.9h8.3v15.4h11.6v-15.4h8.3v15.4h4.4v-15.3h8.3v15.3h11.2v-15.3h8.3v15.3h9.3v-40.5h-78.4v40.5h8.7v-15.4ZM634.4,359.5c3.3,0,6.3,1.9,7.8,4.7l-.8.4c-1.3-2.5-4-4.2-7.1-4.2-3,0-5.6,1.8-6.9,4.2h0,0,0l-.8-.4c1.5-2.7,4.4-4.7,7.7-4.7ZM608.2,358.4l14.3,5.5h0s-.3.8-.3.8l-14-5.4-13.1,5.4-.3-.8,13.4-5.5ZM575.4,364.5l-.8-.4c1.5-2.7,4.4-4.6,7.7-4.7,3.3,0,6.3,1.9,7.8,4.7l-.8.4c-1.3-2.5-4-4.2-7-4.2-3,0-5.6,1.8-6.9,4.2h0Z"/>
      <path class="cls-1" d="M569.6,464.8h29.3v-25.8s1.1-7.1,9.8-7.2c8.6-.1,9.8,7.2,9.8,7.2v25.8h29.5v-40.5h-78.4v40.5ZM630.3,436.6s.5-3.7,4.2-3.7c3.6,0,4.2,3.7,4.2,3.7v14.3h-8.3v-14.3ZM582.4,432.9c3.6,0,4.2,3.7,4.2,3.7v14.3h-8.3v-14.3s.5-3.7,4.2-3.7Z"/>
      <rect class="cls-1" x="569.6" y="417.1" width="78.4" height="6.3"/>
      <rect class="cls-1" x="569.6" y="384.3" width="8.7" height="0"/>
      <rect class="cls-1" x="638.6" y="384.3" width="9.3" height="0"/>
      <rect class="cls-1" x="619.1" y="384.3" width="11.2" height="0"/>
      <rect class="cls-1" x="606.5" y="384.3" width="4.4" height="0"/>
      <rect class="cls-1" x="586.6" y="384.3" width="11.6" height="0"/>
      <polygon class="cls-1" points="627.5 364.5 627.5 364.5 627.5 364.5 627.5 364.5"/>
    </g>
  </g>
  <polygon class="cls-1" points="592 285.6 594.6 293.3 623.2 293.3 625.7 285.6 592 285.6"/>
  <path class="cls-1" d="M623.2,294.3h-28.6c-13.6,6.3-21.6,20-20.1,35.1h20.6l4.7-13.3-1.6-1.6v-2.5s3-3.6,11-3.7c6.9,0,10.4,3.7,10.4,3.7v2.5l-1.5,1.5,4.7,13.4h20.6c2-15-7.6-29.8-20.1-35.1Z"/>
  <path class="cls-1" d="M643.6,331.2c-.2-.2-.4-.5-.5-.8h-20.5v11.5h19.8v-8.4l1.1-2.2Z"/>
  <path class="cls-1" d="M574.1,331.1c.2-.2.4-.5.4-.8h20.5v11.6h-19.8v-8.5l-1.1-2.2Z"/>
  <path class="cls-1" d="M617,315.9l1.7-1.9v-1.7s-3.2-3.2-9.8-3.1c-6.7,0-9.9,3.1-9.9,3.1v1.8l1.7,1.8-4.9,13.8v12.2h25.8v-12.2l-4.8-13.7ZM615.8,314.2c-1.2-1.2-4-2.2-7-2.2-3,0-5.6.9-6.8,2.2l-.5-.6c1.5-1.4,4.2-2.4,7.4-2.4,3.2,0,6,.9,7.5,2.4l-.5.6Z"/>
</svg>